<svg width="139" height="43" viewBox="0 0 139 43" fill="none" xmlns="http://www.w3.org/2000/svg">
<path d="M7.1148 0.899414H12.3334L19.0727 24.4547H13.771L12.5943 19.5886H5.95029L4.7935 24.4547H0.0302734L7.1148 0.899414ZM11.6192 15.5504L9.23497 5.89929L6.94834 15.5504H11.6192Z" fill="white"/>
<path d="M21.0421 0.899414H26.2261V20.0374H33.8295V24.4547H21.042V0.899414H21.0421Z" fill="white"/>
<path d="M51.5245 25.2836V29.011C50.7754 29.2181 50.0382 29.3219 49.3125 29.3219C46.3632 29.3219 44.796 27.8088 44.612 24.7825C44.1855 24.8062 43.8574 24.8176 43.6268 24.8176C41.0807 24.8176 39.0506 23.8427 37.536 21.8924C36.0209 19.9432 35.2637 16.868 35.2637 12.6684C35.2637 4.58047 38.115 0.537109 43.8172 0.537109C46.6396 0.537109 48.7738 1.56115 50.2193 3.60856C51.6647 5.65678 52.3877 8.60737 52.3877 12.4616C52.3877 15.2342 52.0683 17.5559 51.4292 19.4254C50.79 21.2941 49.6693 22.7464 48.0681 23.7824C48.0796 24.461 48.2238 24.924 48.4996 25.1712C48.7766 25.4184 49.1977 25.5423 49.7614 25.5423C50.2911 25.5422 50.8787 25.4562 51.5245 25.2836ZM46.9273 12.6682C46.9273 9.49331 46.6798 7.37956 46.1847 6.32647C45.6891 5.27417 44.8997 4.74776 43.8172 4.74776C42.7455 4.74776 41.9622 5.27682 41.467 6.33536C40.9717 7.39362 40.7241 9.50485 40.7241 12.6682C40.7241 15.775 40.9689 17.8745 41.4583 18.9672C41.9479 20.0603 42.734 20.6068 43.817 20.6068C44.8882 20.6068 45.6743 20.0831 46.1759 19.036C46.6772 17.9893 46.9273 15.8667 46.9273 12.6682Z" fill="white"/>
<path d="M56.0001 0.899414H61.1846V14.3595C61.1846 16.2578 61.2711 17.5804 61.4436 18.3285C61.6161 19.0769 61.9762 19.6432 62.5235 20.0281C63.0707 20.4144 63.7421 20.6066 64.5369 20.6066C65.4008 20.6066 66.0862 20.3937 66.5932 19.9677C67.0997 19.5423 67.4108 18.979 67.5261 18.277C67.6409 17.5751 67.6991 16.2692 67.6991 14.3596V0.899414H72.0364V14.1524C72.0364 16.7986 71.8835 18.7718 71.5777 20.0715C71.2731 21.3715 70.4952 22.4874 69.2457 23.4191C67.9956 24.3514 66.2759 24.817 64.0874 24.817C62.0369 24.817 60.4239 24.4748 59.2483 23.7902C58.0737 23.1062 57.2388 22.1452 56.7431 20.9086C56.2476 19.6714 56 17.4886 56 14.3593V0.899414H56.0001Z" fill="white"/>
<path d="M76.4941 0.899414H81.6781V24.4547H76.4941V0.899414Z" fill="white"/>
<path d="M86.1368 0.899414H93.74L97.0749 15.4464L100.825 0.899414H108.203V24.4547H103.347V4.73011L98.5262 24.4547H94.7594L90.3529 4.73011V24.4547H86.1367L86.1368 0.899414Z" fill="white"/>
<path d="M112.662 0.899414H117.846V24.4547H112.662V0.899414Z" fill="white"/>
<path d="M126.469 0.899414H131.687L138.427 24.4547H133.125L131.948 19.5886H125.304L124.147 24.4547H119.384L126.469 0.899414ZM130.973 15.5504L128.589 5.89929L126.303 15.5504H130.973Z" fill="white"/>
<path d="M4.91772 39.5772L5.76632 39.7675C5.36049 41.4043 4.44347 42.2231 3.01408 42.2231C2.07501 42.2231 1.33786 41.8438 0.802904 41.0859C0.267945 40.3293 0 39.398 0 38.2918C0 37.1504 0.27937 36.2337 0.838108 35.5417C1.39685 34.8491 2.14515 34.5029 3.08435 34.5029C4.47774 34.5029 5.37111 35.2979 5.76632 36.8881L4.89049 37.062C4.57166 35.8811 3.96816 35.2907 3.07917 35.2907C2.42279 35.2907 1.91427 35.565 1.5532 36.1133C1.192 36.6627 1.012 37.433 1.012 38.4249C1.012 39.3339 1.19745 40.063 1.56728 40.6123C1.93699 41.1606 2.42638 41.4352 3.03613 41.4352C3.98224 41.4351 4.60952 40.8158 4.91772 39.5772Z" fill="white"/>
<path d="M9.48314 42.2231C8.52906 42.2231 7.78594 41.8526 7.25257 41.1104C6.71934 40.3699 6.45312 39.4609 6.45312 38.3846C6.45312 37.261 6.73249 36.3326 7.29043 35.601C7.84917 34.8695 8.58871 34.5029 9.51024 34.5029C10.4274 34.5029 11.1645 34.8626 11.7188 35.5819C12.2739 36.3012 12.5516 37.2086 12.5516 38.3034C12.5516 39.3541 12.2819 40.27 11.7433 41.0513C11.2048 41.8325 10.4513 42.2231 9.48314 42.2231ZM9.50506 41.4678C10.1544 41.4678 10.6621 41.1729 11.0285 40.5819C11.3948 39.9901 11.5775 39.2296 11.5775 38.2978C11.5775 37.3404 11.3878 36.5962 11.0092 36.0627C10.6306 35.5302 10.1273 35.2636 9.50001 35.2636C8.86489 35.2636 8.36048 35.552 7.9872 36.1286C7.61391 36.7049 7.42673 37.4583 7.42673 38.3901C7.42673 39.2996 7.61563 40.0402 7.99251 40.6117C8.37018 41.1815 8.87353 41.4678 9.50506 41.4678Z" fill="white"/>
<path d="M19.4158 42.0703H18.5127L14.672 35.605L14.6826 36.0942C14.694 36.2794 14.6992 36.4352 14.6992 36.5619V42.0703H13.9482V34.6543H15.1122L18.7026 40.6978L18.6921 40.1822C18.6849 39.9796 18.6814 39.8002 18.6814 39.6445V34.6543H19.4158V42.0703Z" fill="white"/>
<path d="M20.4561 40.1096L21.2932 39.9188C21.6305 40.9301 22.3616 41.4352 23.4858 41.4352C24.0736 41.4352 24.5155 41.3108 24.8132 41.0616C25.1101 40.8123 25.2595 40.4791 25.2595 40.0615C25.2595 39.7445 25.1461 39.4903 24.9194 39.2981C24.6927 39.1053 24.431 38.9727 24.1333 38.8998L22.6477 38.5342C22.2639 38.4366 21.9485 38.3173 21.7043 38.1776C21.4592 38.0382 21.2518 37.8234 21.0813 37.533C20.9109 37.2433 20.8258 36.9109 20.8258 36.5369C20.8258 35.9171 21.0594 35.4232 21.5268 35.0556C21.995 34.6872 22.5951 34.5029 23.3277 34.5029C24.677 34.5029 25.5633 35.1132 25.9876 36.3338L25.1451 36.5839C25.0467 36.1486 24.8166 35.8206 24.4537 35.5977C24.091 35.3748 23.7053 35.2636 23.295 35.2636C22.8892 35.2636 22.5271 35.3707 22.2101 35.5852C21.892 35.8003 21.734 36.1039 21.734 36.4967C21.734 37.0461 22.1363 37.4172 22.9401 37.6099L24.329 37.9354C25.5984 38.2404 26.2326 38.9225 26.2326 39.9841C26.2326 40.6251 25.9946 41.1587 25.5176 41.5842C25.0405 42.0102 24.3686 42.2231 23.5015 42.2231C21.9645 42.2231 20.9489 41.5184 20.4561 40.1096Z" fill="white"/>
<path d="M29.6324 42.0704H28.7029V35.4693H26.5752V34.6543H31.7654V35.4693H29.6324V42.0704Z" fill="white"/>
<path d="M38.1412 42.0703H37.1656L35.7963 38.8599H33.6684V42.0703H32.7988V34.6543H35.7251C36.5194 34.6543 37.108 34.8712 37.491 35.3037C37.873 35.7372 38.0645 36.2109 38.0645 36.7249C38.0645 37.1199 37.9573 37.4978 37.744 37.8599C37.5295 38.2221 37.1765 38.4815 36.6825 38.6372L38.1412 42.0703ZM33.6686 38.1048H35.611C36.1224 38.1048 36.5044 37.9693 36.7568 37.6992C37.0086 37.4298 37.1343 37.0989 37.1343 36.7078C37.1343 36.3166 37.0011 36.0129 36.7347 35.7955C36.4684 35.5778 36.1321 35.469 35.7252 35.469H33.6686V38.1048Z" fill="white"/>
<path d="M43.7611 34.6543H44.533V39.499C44.533 40.4703 44.2947 41.1668 43.8182 41.5895C43.341 42.0116 42.7165 42.223 41.9435 42.223C41.084 42.223 40.447 42.005 40.0347 41.5705C39.6208 41.1352 39.4141 40.4447 39.4141 39.499V34.6543H40.3449V39.4999C40.3449 40.0756 40.4113 40.4816 40.5456 40.7175C40.6801 40.9527 40.8829 41.1271 41.1543 41.2396C41.4268 41.3516 41.7113 41.4081 42.0095 41.4081C42.5818 41.4081 43.017 41.2581 43.3147 40.956C43.6116 40.6562 43.7614 40.1698 43.7614 39.5V34.6543H43.7611Z" fill="white"/>
<path d="M50.7302 39.5772L51.5788 39.7675C51.1719 41.4043 50.2547 42.2231 48.8255 42.2231C47.8864 42.2231 47.1491 41.8438 46.6139 41.0859C46.0792 40.3293 45.8115 39.398 45.8115 38.2918C45.8115 37.1504 46.0906 36.2337 46.6492 35.5417C47.208 34.8491 47.9565 34.5029 48.8967 34.5029C50.2887 34.5029 51.1832 35.2979 51.5786 36.8881L50.7028 37.062C50.3829 35.8811 49.7797 35.2907 48.8902 35.2907C48.2339 35.2907 47.7253 35.565 47.3646 36.1133C47.0039 36.6627 46.8233 37.433 46.8233 38.4249C46.8233 39.3339 47.0087 40.063 47.3781 40.6123C47.748 41.1606 48.2376 41.4352 48.8471 41.4352C49.7934 41.4351 50.4216 40.8158 50.7302 39.5772Z" fill="white"/>
<path d="M57.1818 39.5772L58.0305 39.7675C57.6247 41.4043 56.7063 42.2231 55.2783 42.2231C54.3381 42.2231 53.601 41.8438 53.0655 41.0859C52.5308 40.3293 52.2637 39.398 52.2637 38.2918C52.2637 37.1504 52.5433 36.2337 53.101 35.5417C53.6598 34.8491 54.409 34.5029 55.3486 34.5029C56.7406 34.5029 57.635 35.2979 58.0305 36.8881L57.1547 37.062C56.8359 35.8811 56.2314 35.2907 55.3431 35.2907C54.687 35.2907 54.1782 35.565 53.817 36.1133C53.4557 36.6627 53.2755 37.433 53.2755 38.4249C53.2755 39.3339 53.4599 40.063 53.83 40.6123C54.2 41.1606 54.6902 41.4352 55.299 41.4352C56.246 41.4351 56.8733 40.8158 57.1818 39.5772Z" fill="white"/>
<path d="M60.1138 42.0703H59.1836V34.6543H60.1138V42.0703Z" fill="white"/>
<path d="M64.5313 42.2233C63.577 42.2233 62.8334 41.8527 62.3002 41.1106C61.7671 40.3701 61.501 39.4611 61.501 38.3848C61.501 37.2612 61.7801 36.3328 62.3388 35.6012C62.897 34.8697 63.6374 34.5031 64.5584 34.5031C65.4762 34.5031 66.2121 34.8628 66.7666 35.5821C67.322 36.3014 67.5995 37.2088 67.5995 38.3036C67.5995 39.3543 67.3297 40.2702 66.7911 41.0515C66.253 41.8326 65.4992 42.2233 64.5313 42.2233ZM64.553 41.468C65.202 41.468 65.7101 41.1731 66.0762 40.5821C66.4423 39.9903 66.6251 39.2298 66.6251 38.298C66.6251 37.3405 66.4364 36.5964 66.0567 36.0629C65.6781 35.5303 65.1749 35.2638 64.5476 35.2638C63.9127 35.2638 63.4085 35.5522 63.0346 36.1288C62.6615 36.7051 62.4743 37.4585 62.4743 38.3903C62.4743 39.2997 62.6631 40.0404 63.0401 40.6119C63.4178 41.1817 63.9219 41.468 64.553 41.468ZM66.2335 32.9541L63.9818 33.9815L63.7473 33.5416L65.9049 32.3027L66.2335 32.9541Z" fill="white"/>
<path d="M74.4642 42.0703H73.5612L69.7209 35.605L69.7313 36.0942C69.7427 36.2794 69.7482 36.4352 69.7482 36.5619V42.0703H68.9971V34.6543H70.1617L73.7517 40.6978L73.7413 40.1822C73.7331 39.9796 73.7299 39.8002 73.7299 39.6445V34.6543H74.4642V42.0703Z" fill="white"/>
<path d="M85.1976 41.2885V42.0705C84.8675 42.1247 84.5991 42.1519 84.3919 42.1519C84.2401 42.1519 84.0775 42.1247 83.905 42.0716C83.7321 42.0177 83.4807 41.822 83.1505 41.4842C82.5634 41.9765 81.8998 42.2231 81.16 42.2231C80.4098 42.2231 79.8054 42.0078 79.3468 41.5791C78.8871 41.1501 78.6592 40.6306 78.6592 40.0227C78.6592 39.5377 78.8207 39.0894 79.145 38.6774C79.4682 38.2661 79.9458 37.9581 80.5796 37.7514C80.1052 37.0634 79.8681 36.4983 79.8669 36.0563C79.8669 35.6363 80.0171 35.2723 80.3184 34.9642C80.6209 34.6562 81.0218 34.5029 81.5227 34.5029C82.0314 34.5029 82.4487 34.6459 82.7735 34.9328C83.0988 35.2185 83.2614 35.6046 83.2614 36.09C83.2614 36.8803 82.7403 37.5216 81.6985 38.0147L83.2635 40.3885C83.7701 39.7458 84.1047 38.9538 84.2673 38.0122L85.0621 38.1807C84.8406 39.251 84.3859 40.1771 83.6961 40.9607C83.9321 41.2159 84.1966 41.3431 84.4903 41.3431C84.6246 41.343 84.8603 41.3246 85.1976 41.2885ZM80.9445 38.3108C80.4288 38.5313 80.0752 38.7689 79.8809 39.0241C79.6857 39.2791 79.5895 39.5978 79.5895 39.9816C79.5895 40.5063 79.757 40.8931 80.0927 41.1419C80.4283 41.3925 80.8189 41.5168 81.2661 41.5168C81.8319 41.5168 82.3205 41.3211 82.7306 40.9307L80.9445 38.3108ZM81.3143 37.4846C81.9003 37.1619 82.2533 36.902 82.3741 36.7068C82.4932 36.5101 82.5541 36.3215 82.5541 36.1401C82.5541 35.8821 82.4617 35.6603 82.2761 35.4735C82.0912 35.2867 81.8557 35.1927 81.5695 35.1927C81.3083 35.1927 81.0923 35.2753 80.9216 35.4409C80.7513 35.6054 80.6659 35.7919 80.6659 35.9977C80.6659 36.317 80.8824 36.8124 81.3143 37.4846Z" fill="white"/>
<path d="M88.499 40.1096L89.3369 39.9188C89.6742 40.9301 90.4053 41.4352 91.5298 41.4352C92.1169 41.4352 92.5591 41.3108 92.8572 41.0616C93.1542 40.8123 93.3028 40.4791 93.3028 40.0615C93.3028 39.7445 93.189 39.4903 92.9632 39.2981C92.7368 39.1053 92.4746 38.9727 92.177 38.8998L90.6913 38.5342C90.3066 38.4366 89.9923 38.3173 89.748 38.1776C89.5026 38.0382 89.2954 37.8234 89.1246 37.533C88.9537 37.2433 88.8689 36.9109 88.8689 36.5369C88.8689 35.9171 89.1033 35.4232 89.5707 35.0556C90.0391 34.6872 90.6386 34.5029 91.3714 34.5029C92.721 34.5029 93.6072 35.1132 94.0315 36.3338L93.1882 36.5839C93.0903 36.1486 92.8601 35.8206 92.4973 35.5977C92.1345 35.3748 91.7482 35.2636 91.3385 35.2636C90.9327 35.2636 90.571 35.3707 90.2532 35.5852C89.9361 35.8003 89.7778 36.1039 89.7778 36.4967C89.7778 37.0461 90.1792 37.4172 90.9838 37.6099L92.3717 37.9354C93.6414 38.2404 94.2762 38.9225 94.2762 39.9841C94.2762 40.6251 94.0374 41.1587 93.5614 41.5842C93.0842 42.0102 92.4124 42.2231 91.5452 42.2231C90.0081 42.2231 88.9925 41.5184 88.499 40.1096Z" fill="white"/>
<path d="M100.463 41.255V42.0703H95.6592V34.6543H100.36V35.4693H96.59V37.8276H99.582V38.5829H96.59V41.2552L100.463 41.255Z" fill="white"/>
<path d="M107.105 42.0703H106.13L104.761 38.8599H102.633V42.0703H101.763V34.6543H104.69C105.484 34.6543 106.072 34.8712 106.455 35.3037C106.838 35.7372 107.028 36.2109 107.028 36.7249C107.028 37.1199 106.922 37.4978 106.708 37.8599C106.493 38.2221 106.14 38.4815 105.646 38.6372L107.105 42.0703ZM102.633 38.1048H104.576C105.087 38.1048 105.468 37.9693 105.72 37.6992C105.972 37.4298 106.098 37.0989 106.098 36.7078C106.098 36.3166 105.965 36.0129 105.699 35.7955C105.432 35.5778 105.096 35.469 104.69 35.469H102.633V38.1048Z" fill="white"/>
<path d="M113.476 34.6543L110.974 42.0703H110.076L107.574 34.6543H108.548L110.617 40.7716L112.667 34.6543H113.476Z" fill="white"/>
<path d="M115.375 42.0703H114.444V34.6543H115.375V42.0703Z" fill="white"/>
<path d="M121.679 39.5772L122.528 39.7675C122.122 41.4043 121.204 42.2231 119.776 42.2231C118.836 42.2231 118.099 41.8438 117.564 41.0859C117.029 40.3293 116.762 39.398 116.762 38.2918C116.762 37.1504 117.041 36.2337 117.6 35.5417C118.158 34.8491 118.907 34.5029 119.846 34.5029C121.24 34.5029 122.133 35.2979 122.528 36.8881L121.652 37.062C121.334 35.8811 120.73 35.2907 119.841 35.2907C119.185 35.2907 118.676 35.565 118.315 36.1133C117.954 36.6627 117.774 37.433 117.774 38.4249C117.774 39.3339 117.959 40.063 118.329 40.6123C118.699 41.1606 119.188 41.4352 119.798 41.4352C120.744 41.4351 121.371 40.8158 121.679 39.5772Z" fill="white"/>
<path d="M124.611 42.0703H123.681V34.6543H124.611V42.0703Z" fill="white"/>
<path d="M129.028 42.2231C128.075 42.2231 127.331 41.8526 126.797 41.1104C126.265 40.3699 125.998 39.4609 125.998 38.3846C125.998 37.261 126.278 36.3326 126.836 35.601C127.395 34.8695 128.134 34.5029 129.055 34.5029C129.973 34.5029 130.709 34.8626 131.265 35.5819C131.819 36.3012 132.096 37.2086 132.096 38.3034C132.096 39.3541 131.828 40.27 131.288 41.0513C130.75 41.8324 129.997 42.2231 129.028 42.2231ZM129.05 41.4678C129.699 41.4678 130.207 41.1729 130.573 40.5819C130.939 39.9901 131.123 39.2296 131.123 38.2978C131.123 37.3404 130.933 36.5962 130.554 36.0627C130.175 35.5302 129.672 35.2636 129.044 35.2636C128.41 35.2636 127.906 35.552 127.531 36.1286C127.158 36.7049 126.972 37.4583 126.972 38.3901C126.972 39.2996 127.16 40.0402 127.538 40.6117C127.915 41.1815 128.419 41.4678 129.05 41.4678Z" fill="white"/>
<path d="M132.68 40.1096L133.517 39.9188C133.854 40.9301 134.585 41.4352 135.709 41.4352C136.297 41.4352 136.739 41.3108 137.037 41.0616C137.334 40.8123 137.483 40.4791 137.483 40.0615C137.483 39.7445 137.37 39.4903 137.143 39.2981C136.916 39.1053 136.655 38.9727 136.357 38.8998L134.871 38.5342C134.487 38.4366 134.173 38.3173 133.928 38.1776C133.683 38.0382 133.476 37.8234 133.305 37.533C133.134 37.2433 133.049 36.9109 133.049 36.5369C133.049 35.9171 133.283 35.4232 133.751 35.0556C134.219 34.6872 134.819 34.5029 135.551 34.5029C136.901 34.5029 137.788 35.1132 138.211 36.3338L137.369 36.5839C137.271 36.1486 137.04 35.8206 136.678 35.5977C136.315 35.3748 135.929 35.2636 135.519 35.2636C135.113 35.2636 134.751 35.3707 134.433 35.5852C134.116 35.8003 133.957 36.1039 133.957 36.4967C133.957 37.0461 134.36 37.4172 135.164 37.6099L136.552 37.9354C137.822 38.2404 138.456 38.9225 138.456 39.9841C138.456 40.6251 138.217 41.1587 137.741 41.5842C137.264 42.0102 136.592 42.2231 135.726 42.2231C134.188 42.2231 133.173 41.5184 132.68 40.1096Z" fill="white"/>
</svg>
