<svg width="109" height="37" viewBox="0 0 109 37" fill="none" xmlns="http://www.w3.org/2000/svg">
<path d="M3.47748 8.28906H6.02828L9.32235 19.9178H6.73098L6.15581 17.5155H2.90829L2.34286 19.9178H0.0146484L3.47748 8.28906ZM5.6792 15.5219L4.5138 10.7574L3.39612 15.5219H5.6792Z" fill="black"/>
<path d="M10.2852 8.28906H12.8191V17.737H16.5355V19.9178H10.2852V8.28906H10.2852Z" fill="black"/>
<path d="M25.1844 20.3271V22.1672C24.8183 22.2695 24.458 22.3207 24.1032 22.3207C22.6617 22.3207 21.8956 21.5737 21.8057 20.0798C21.5972 20.0914 21.4369 20.097 21.3241 20.097C20.0796 20.097 19.0874 19.6158 18.347 18.653C17.6064 17.6907 17.2363 16.1725 17.2363 14.0993C17.2363 10.1065 18.63 8.11035 21.4172 8.11035C22.7967 8.11035 23.8399 8.6159 24.5465 9.62666C25.253 10.6378 25.6063 12.0945 25.6063 13.9972C25.6063 15.366 25.4502 16.5121 25.1379 17.4351C24.8254 18.3576 24.2776 19.0746 23.495 19.586C23.5006 19.921 23.5711 20.1496 23.7059 20.2716C23.8413 20.3937 24.0471 20.4548 24.3226 20.4548C24.5816 20.4548 24.8688 20.4123 25.1844 20.3271ZM22.9374 14.0992C22.9374 12.5318 22.8164 11.4883 22.5744 10.9684C22.3321 10.4489 21.9463 10.1891 21.4172 10.1891C20.8934 10.1891 20.5105 10.4502 20.2685 10.9728C20.0263 11.4953 19.9053 12.5375 19.9053 14.0992C19.9053 15.6329 20.025 16.6694 20.2642 17.2088C20.5035 17.7485 20.8877 18.0183 21.4171 18.0183C21.9407 18.0183 22.3249 17.7598 22.5701 17.2428C22.8151 16.7261 22.9374 15.6782 22.9374 14.0992Z" fill="black"/>
<path d="M27.3721 8.28906H29.9062V14.934C29.9062 15.8711 29.9485 16.5241 30.0329 16.8934C30.1171 17.2629 30.2932 17.5424 30.5607 17.7324C30.8282 17.9232 31.1563 18.0181 31.5448 18.0181C31.9671 18.0181 32.3021 17.9129 32.5499 17.7026C32.7975 17.4926 32.9496 17.2145 33.0059 16.868C33.062 16.5215 33.0905 15.8767 33.0905 14.934V8.28906H35.2105V14.8317C35.2105 16.1381 35.1358 17.1122 34.9863 17.7539C34.8374 18.3956 34.4571 18.9466 33.8464 19.4065C33.2354 19.8667 32.3948 20.0966 31.3251 20.0966C30.3229 20.0966 29.5344 19.9277 28.9598 19.5897C28.3857 19.252 27.9776 18.7776 27.7353 18.1671C27.4931 17.5563 27.3721 16.4788 27.3721 14.9339V8.28906H27.3721Z" fill="black"/>
<path d="M37.3896 8.28906H39.9235V19.9178H37.3896V8.28906Z" fill="black"/>
<path d="M42.1026 8.28906H45.8189L47.449 15.4706L49.2819 8.28906H52.8884V19.9178H50.5149V10.1802L48.1584 19.9178H46.3172L44.1634 10.1802V19.9178H42.1025L42.1026 8.28906Z" fill="black"/>
<path d="M55.0674 8.28906H57.6012V19.9178H55.0674V8.28906Z" fill="black"/>
<path d="M61.8167 8.28906H64.3673L67.6617 19.9178H65.0698L64.4949 17.5155H61.2473L60.6818 19.9178H58.3535L61.8167 8.28906ZM64.0182 15.5219L62.8527 10.7574L61.7356 15.5219H64.0182Z" fill="black"/>
<path d="M2.40373 27.383L2.81851 27.4769C2.62014 28.285 2.17192 28.6892 1.47325 28.6892C1.01424 28.6892 0.653933 28.5019 0.392451 28.1278C0.130969 27.7543 0 27.2945 0 26.7484C0 26.1849 0.136553 25.7324 0.409658 25.3907C0.682762 25.0488 1.04853 24.8779 1.5076 24.8779C2.18867 24.8779 2.62534 25.2704 2.81851 26.0554L2.39041 26.1413C2.23458 25.5583 1.93959 25.2668 1.50506 25.2668C1.18423 25.2668 0.935673 25.4023 0.759187 25.673C0.582637 25.9442 0.494654 26.3244 0.494654 26.8141C0.494654 27.2629 0.585299 27.6228 0.76607 27.894C0.946777 28.1647 1.18599 28.3002 1.48403 28.3002C1.94647 28.3002 2.25308 27.9944 2.40373 27.383Z" fill="black"/>
<path d="M4.63533 28.6892C4.16899 28.6892 3.80576 28.5063 3.54506 28.1399C3.28442 27.7743 3.1543 27.3256 3.1543 26.7942C3.1543 26.2395 3.29085 25.7812 3.56356 25.42C3.83667 25.0589 4.19815 24.8779 4.64858 24.8779C5.09687 24.8779 5.45718 25.0555 5.72808 25.4106C5.99943 25.7657 6.13514 26.2137 6.13514 26.7541C6.13514 27.2728 6.00333 27.725 5.74009 28.1107C5.47686 28.4964 5.10856 28.6892 4.63533 28.6892ZM4.64605 28.3163C4.96344 28.3163 5.21161 28.1707 5.39069 27.879C5.56971 27.5868 5.65906 27.2114 5.65906 26.7514C5.65906 26.2787 5.56633 25.9114 5.38128 25.6479C5.19622 25.385 4.95019 25.2535 4.64358 25.2535C4.33314 25.2535 4.08659 25.3959 3.90413 25.6805C3.72167 25.965 3.63018 26.3369 3.63018 26.797C3.63018 27.2459 3.72252 27.6116 3.90673 27.8937C4.09133 28.175 4.33736 28.3163 4.64605 28.3163Z" fill="black"/>
<path d="M9.49084 28.6142H9.04943L7.17211 25.4225L7.1773 25.664C7.18289 25.7554 7.18542 25.8323 7.18542 25.8949V28.6142H6.81836V24.9531H7.38729L9.14222 27.9367L9.13709 27.6821C9.13358 27.5821 9.13189 27.4936 9.13189 27.4167V24.9531H9.49084V28.6142Z" fill="black"/>
<path d="M9.99902 27.6458L10.4082 27.5516C10.5731 28.0509 10.9304 28.3002 11.4799 28.3002C11.7673 28.3002 11.9832 28.2388 12.1287 28.1158C12.2739 27.9927 12.3469 27.8282 12.3469 27.622C12.3469 27.4656 12.2915 27.3401 12.1807 27.2452C12.0698 27.15 11.9419 27.0845 11.7964 27.0486L11.0703 26.8681C10.8827 26.8199 10.7285 26.761 10.6091 26.692C10.4893 26.6232 10.388 26.5172 10.3047 26.3738C10.2214 26.2308 10.1797 26.0667 10.1797 25.8821C10.1797 25.5761 10.2939 25.3323 10.5224 25.1508C10.7513 24.9689 11.0446 24.8779 11.4027 24.8779C12.0622 24.8779 12.4954 25.1792 12.7028 25.7818L12.291 25.9053C12.2429 25.6904 12.1304 25.5284 11.953 25.4184C11.7758 25.3084 11.5872 25.2535 11.3867 25.2535C11.1883 25.2535 11.0113 25.3063 10.8564 25.4122C10.7009 25.5184 10.6237 25.6683 10.6237 25.8622C10.6237 26.1334 10.8203 26.3166 11.2132 26.4118L11.8921 26.5724C12.5125 26.723 12.8225 27.0598 12.8225 27.5839C12.8225 27.9003 12.7062 28.1637 12.4731 28.3738C12.2398 28.5841 11.9114 28.6892 11.4876 28.6892C10.7363 28.6892 10.2399 28.3413 9.99902 27.6458Z" fill="black"/>
<path d="M14.4836 28.6143H14.0293V25.3555H12.9893V24.9531H15.5262V25.3555H14.4836V28.6143Z" fill="black"/>
<path d="M18.6426 28.6142H18.1657L17.4964 27.0293H16.4563V28.6142H16.0312V24.9531H17.4616C17.8498 24.9531 18.1375 25.0602 18.3247 25.2737C18.5115 25.4877 18.605 25.7216 18.605 25.9753C18.605 26.1703 18.5526 26.3569 18.4484 26.5356C18.3436 26.7144 18.171 26.8425 17.9295 26.9194L18.6426 28.6142ZM16.4564 26.6565H17.4058C17.6558 26.6565 17.8425 26.5897 17.9658 26.4563C18.089 26.3233 18.1504 26.16 18.1504 25.9669C18.1504 25.7738 18.0853 25.6238 17.9551 25.5165C17.8249 25.409 17.6605 25.3553 17.4616 25.3553H16.4564V26.6565Z" fill="black"/>
<path d="M21.3894 24.9531H21.7667V27.3448C21.7667 27.8244 21.6503 28.1682 21.4173 28.3769C21.1841 28.5853 20.8789 28.6896 20.501 28.6896C20.0809 28.6896 19.7696 28.582 19.568 28.3675C19.3657 28.1526 19.2646 27.8117 19.2646 27.3448V24.9531H19.7196V27.3453C19.7196 27.6295 19.7521 27.8299 19.8177 27.9464C19.8835 28.0625 19.9826 28.1486 20.1153 28.2042C20.2484 28.2594 20.3875 28.2873 20.5333 28.2873C20.813 28.2873 21.0257 28.2133 21.1713 28.0641C21.3164 27.9161 21.3896 27.676 21.3896 27.3453V24.9531H21.3894Z" fill="black"/>
<path d="M24.7958 27.383L25.2106 27.4769C25.0117 28.285 24.5634 28.6892 23.8648 28.6892C23.4058 28.6892 23.0454 28.5019 22.7838 28.1278C22.5224 27.7543 22.3916 27.2945 22.3916 26.7484C22.3916 26.1849 22.528 25.7324 22.8011 25.3907C23.0742 25.0488 23.4401 24.8779 23.8996 24.8779C24.58 24.8779 25.0172 25.2704 25.2105 26.0554L24.7824 26.1413C24.626 25.5583 24.3312 25.2668 23.8964 25.2668C23.5756 25.2668 23.327 25.4023 23.1507 25.673C22.9744 25.9442 22.8861 26.3244 22.8861 26.8141C22.8861 27.2629 22.9768 27.6228 23.1573 27.894C23.3381 28.1647 23.5775 28.3002 23.8754 28.3002C24.3379 28.3002 24.6449 27.9944 24.7958 27.383Z" fill="black"/>
<path d="M27.9498 27.383L28.3647 27.4769C28.1663 28.285 27.7174 28.6892 27.0194 28.6892C26.5599 28.6892 26.1996 28.5019 25.9378 28.1278C25.6765 27.7543 25.5459 27.2945 25.5459 26.7484C25.5459 26.1849 25.6826 25.7324 25.9552 25.3907C26.2283 25.0488 26.5945 24.8779 27.0538 24.8779C27.7342 24.8779 28.1714 25.2704 28.3647 26.0554L27.9366 26.1413C27.7807 25.5583 27.4853 25.2668 27.0511 25.2668C26.7304 25.2668 26.4817 25.4023 26.3052 25.673C26.1285 25.9442 26.0405 26.3244 26.0405 26.8141C26.0405 27.2629 26.1306 27.6228 26.3115 27.894C26.4923 28.1647 26.7319 28.3002 27.0295 28.3002C27.4924 28.3002 27.799 27.9944 27.9498 27.383Z" fill="black"/>
<path d="M29.3824 28.6142H28.9277V24.9531H29.3824V28.6142Z" fill="black"/>
<path d="M31.5417 28.6895C31.0753 28.6895 30.7118 28.5066 30.4512 28.1402C30.1906 27.7747 30.0605 27.3259 30.0605 26.7945C30.0605 26.2399 30.197 25.7816 30.4701 25.4204C30.7429 25.0592 31.1048 24.8783 31.555 24.8783C32.0036 24.8783 32.3633 25.0558 32.6343 25.4109C32.9058 25.766 33.0415 26.214 33.0415 26.7545C33.0415 27.2732 32.9096 27.7253 32.6463 28.111C32.3833 28.4967 32.0148 28.6895 31.5417 28.6895ZM31.5524 28.3167C31.8696 28.3167 32.1179 28.1711 32.2969 27.8793C32.4758 27.5871 32.5652 27.2117 32.5652 26.7517C32.5652 26.279 32.4729 25.9117 32.2873 25.6483C32.1023 25.3854 31.8563 25.2538 31.5497 25.2538C31.2394 25.2538 30.9929 25.3962 30.8102 25.6808C30.6278 25.9653 30.5363 26.3373 30.5363 26.7973C30.5363 27.2463 30.6286 27.6119 30.8129 27.894C30.9975 28.1753 31.2439 28.3167 31.5524 28.3167ZM32.3738 24.1136L31.2732 24.6207L31.1585 24.4036L32.2131 23.792L32.3738 24.1136Z" fill="black"/>
<path d="M36.3979 28.6142H35.9565L34.0794 25.4225L34.0845 25.664C34.09 25.7554 34.0927 25.8323 34.0927 25.8949V28.6142H33.7256V24.9531H34.2948L36.0496 27.9367L36.0445 27.6821C36.0405 27.5821 36.0389 27.4936 36.0389 27.4167V24.9531H36.3979V28.6142Z" fill="black"/>
<path d="M41.6432 28.2278V28.6139C41.4818 28.6406 41.3506 28.654 41.2494 28.654C41.1751 28.654 41.0957 28.6406 41.0114 28.6144C40.9268 28.5878 40.804 28.4912 40.6426 28.3244C40.3556 28.5674 40.0312 28.6892 39.6696 28.6892C39.3029 28.6892 39.0075 28.5829 38.7834 28.3713C38.5587 28.1595 38.4473 27.903 38.4473 27.6029C38.4473 27.3635 38.5262 27.1422 38.6847 26.9387C38.8427 26.7357 39.0761 26.5836 39.3859 26.4816C39.1541 26.142 39.0381 25.863 39.0376 25.6448C39.0376 25.4374 39.111 25.2577 39.2583 25.1056C39.4061 24.9536 39.6021 24.8779 39.8469 24.8779C40.0956 24.8779 40.2995 24.9485 40.4583 25.0901C40.6173 25.2312 40.6968 25.4218 40.6968 25.6614C40.6968 26.0516 40.442 26.3682 39.9329 26.6116L40.6978 27.7835C40.9454 27.4662 41.109 27.0752 41.1884 26.6104L41.5769 26.6935C41.4687 27.2219 41.2464 27.6792 40.9092 28.066C41.0246 28.192 41.1539 28.2548 41.2975 28.2548C41.3631 28.2547 41.4783 28.2456 41.6432 28.2278ZM39.5643 26.7578C39.3122 26.8666 39.1394 26.9839 39.0444 27.1099C38.949 27.2358 38.902 27.3931 38.902 27.5826C38.902 27.8416 38.9839 28.0326 39.1479 28.1554C39.312 28.2791 39.5029 28.3405 39.7215 28.3405C39.998 28.3405 40.2369 28.2439 40.4373 28.0512L39.5643 26.7578ZM39.7451 26.3499C40.0315 26.1906 40.204 26.0623 40.2631 25.9659C40.3213 25.8688 40.3511 25.7757 40.3511 25.6862C40.3511 25.5588 40.3059 25.4493 40.2152 25.3571C40.1248 25.2649 40.0097 25.2184 39.8698 25.2184C39.7421 25.2184 39.6366 25.2592 39.5531 25.341C39.4699 25.4222 39.4281 25.5143 39.4281 25.6158C39.4281 25.7735 39.534 26.018 39.7451 26.3499Z" fill="black"/>
<path d="M43.2578 27.6458L43.6673 27.5516C43.8322 28.0509 44.1896 28.3002 44.7392 28.3002C45.0262 28.3002 45.2423 28.2388 45.388 28.1158C45.5332 27.9927 45.6058 27.8282 45.6058 27.622C45.6058 27.4656 45.5502 27.3401 45.4399 27.2452C45.3292 27.15 45.201 27.0845 45.0556 27.0486L44.3294 26.8681C44.1413 26.8199 43.9877 26.761 43.8683 26.692C43.7484 26.6232 43.6471 26.5172 43.5636 26.3738C43.4801 26.2308 43.4386 26.0667 43.4386 25.8821C43.4386 25.5761 43.5532 25.3323 43.7816 25.1508C44.0106 24.9689 44.3036 24.8779 44.6618 24.8779C45.3215 24.8779 45.7546 25.1792 45.962 25.7818L45.5499 25.9053C45.502 25.6904 45.3895 25.5284 45.2121 25.4184C45.0348 25.3084 44.846 25.2535 44.6457 25.2535C44.4474 25.2535 44.2706 25.3063 44.1152 25.4122C43.9602 25.5184 43.8828 25.6683 43.8828 25.8622C43.8828 26.1334 44.0791 26.3166 44.4724 26.4118L45.1507 26.5724C45.7713 26.723 46.0816 27.0598 46.0816 27.5839C46.0816 27.9003 45.9649 28.1637 45.7322 28.3738C45.499 28.5841 45.1706 28.6892 44.7468 28.6892C43.9954 28.6892 43.499 28.3413 43.2578 27.6458Z" fill="black"/>
<path d="M49.1048 28.2118V28.6142H46.7568V24.9531H49.0543V25.3555H47.2118V26.5197H48.6743V26.8926H47.2118V28.2118L49.1048 28.2118Z" fill="black"/>
<path d="M52.3515 28.6142H51.8747L51.2059 27.0293H50.1657V28.6142H49.7402V24.9531H51.1711C51.5593 24.9531 51.8468 25.0602 52.0337 25.2737C52.2209 25.4877 52.3139 25.7216 52.3139 25.9753C52.3139 26.1703 52.2621 26.3569 52.1573 26.5356C52.0525 26.7144 51.88 26.8425 51.6385 26.9194L52.3515 28.6142ZM50.1657 26.6565H51.1152C51.3652 26.6565 51.5513 26.5897 51.6748 26.4563C51.7979 26.3233 51.8593 26.16 51.8593 25.9669C51.8593 25.7738 51.7944 25.6238 51.6641 25.5165C51.5338 25.409 51.3694 25.3553 51.1711 25.3553H50.1657V26.6565Z" fill="black"/>
<path d="M55.4659 24.9531L54.243 28.6142H53.804L52.5811 24.9531H53.0571L54.0683 27.9731L55.0706 24.9531H55.4659Z" fill="black"/>
<path d="M56.3941 28.6142H55.9395V24.9531H56.3941V28.6142Z" fill="black"/>
<path d="M59.476 27.383L59.8908 27.4769C59.6925 28.285 59.2436 28.6892 58.5456 28.6892C58.0861 28.6892 57.7258 28.5019 57.4645 28.1278C57.2028 27.7543 57.0723 27.2945 57.0723 26.7484C57.0723 26.1849 57.2089 25.7324 57.482 25.3907C57.7546 25.0488 58.121 24.8779 58.58 24.8779C59.261 24.8779 59.6976 25.2704 59.8909 26.0554L59.4628 26.1413C59.307 25.5583 59.0119 25.2668 58.5773 25.2668C58.2566 25.2668 58.008 25.4023 57.8314 25.673C57.6552 25.9442 57.5672 26.3244 57.5672 26.8141C57.5672 27.2629 57.6573 27.6228 57.8384 27.894C58.0192 28.1647 58.2582 28.3002 58.5564 28.3002C59.0187 28.3002 59.3252 27.9944 59.476 27.383Z" fill="black"/>
<path d="M60.9088 28.6142H60.4541V24.9531H60.9088V28.6142Z" fill="black"/>
<path d="M63.0678 28.6892C62.6019 28.6892 62.2384 28.5063 61.9775 28.1399C61.7175 27.7743 61.5869 27.3256 61.5869 26.7942C61.5869 26.2395 61.7236 25.7812 61.9967 25.42C62.2698 25.0589 62.6312 24.8779 63.0813 24.8779C63.5299 24.8779 63.8897 25.0555 64.1612 25.4106C64.4321 25.7657 64.5678 26.2137 64.5678 26.7541C64.5678 27.2728 64.4364 27.725 64.1726 28.1107C63.9096 28.4963 63.5416 28.6892 63.0678 28.6892ZM63.0787 28.3163C63.3959 28.3163 63.6442 28.1707 63.8232 27.879C64.0021 27.5868 64.092 27.2114 64.092 26.7514C64.092 26.2787 63.9992 25.9114 63.8136 25.6479C63.6285 25.385 63.3825 25.2535 63.0759 25.2535C62.7659 25.2535 62.5194 25.3959 62.3364 25.6805C62.154 25.965 62.0631 26.3369 62.0631 26.797C62.0631 27.2459 62.1548 27.6116 62.3396 27.8937C62.524 28.175 62.7702 28.3163 63.0787 28.3163Z" fill="black"/>
<path d="M64.8525 27.6458L65.2617 27.5516C65.4266 28.0509 65.7837 28.3002 66.3334 28.3002C66.6206 28.3002 66.8367 28.2388 66.9822 28.1158C67.1274 27.9927 67.2002 27.8282 67.2002 27.622C67.2002 27.4656 67.1449 27.3401 67.0343 27.2452C66.9234 27.15 66.7955 27.0845 66.6498 27.0486L65.9238 26.8681C65.7361 26.8199 65.5824 26.761 65.4625 26.692C65.3428 26.6232 65.2415 26.5172 65.158 26.3738C65.0748 26.2308 65.033 26.0667 65.033 25.8821C65.033 25.5761 65.1474 25.3323 65.3763 25.1508C65.6048 24.9689 65.8981 24.8779 66.256 24.8779C66.9157 24.8779 67.3494 25.1792 67.5562 25.7818L67.1446 25.9053C67.0965 25.6904 66.984 25.5284 66.8067 25.4184C66.6293 25.3084 66.4408 25.2535 66.2403 25.2535C66.0419 25.2535 65.8648 25.3063 65.7098 25.4122C65.5548 25.5184 65.4771 25.6683 65.4771 25.8622C65.4771 26.1334 65.6739 26.3166 66.0666 26.4118L66.7455 26.5724C67.3661 26.723 67.6762 27.0598 67.6762 27.5839C67.6762 27.9003 67.5592 28.1637 67.3265 28.3738C67.0933 28.5841 66.7649 28.6892 66.3416 28.6892C65.5896 28.6892 65.0934 28.3413 64.8525 27.6458Z" fill="black"/>
<path d="M94.028 34.2057L94.1169 36.287H75.9971L92.4906 0.44043L109 36.3607H106.685L92.4904 5.62411L79.7491 34.1958L94.028 34.2057Z" fill="#F8DA15"/>
<path d="M105.243 19.6291C105.243 26.7563 99.5374 32.5336 92.4989 32.5336C85.4606 32.5336 79.7549 26.7563 79.7549 19.6291C79.7549 12.5021 85.4606 6.72461 92.4989 6.72461C99.5374 6.72454 105.243 12.5021 105.243 19.6291ZM92.4989 8.90993C86.6524 8.90993 81.9132 13.709 81.9132 19.6291C81.9132 25.5491 86.6524 30.3483 92.4989 30.3483C98.3454 30.3483 103.085 25.5491 103.085 19.6291C103.085 13.709 98.3454 8.90993 92.4989 8.90993Z" fill="#F8DA15"/>
<path d="M82.7376 27.8228L82.4951 27.5281L83.5097 25.418L83.7786 25.8222" fill="#F8DA15"/>
<path d="M106.726 36.2947H108.894L92.4868 0.597656L91.3691 3.03316L106.726 36.2947Z" fill="#F8DA15"/>
<path d="M80.8926 25.8059L81.1554 25.2236L82.5159 22.2754L84.6627 23.0122L83.4439 25.7572L82.4442 27.9948L80.8926 25.8059Z" fill="#F8DA15"/>
</svg>
