<svg width="68" height="73" viewBox="0 0 68 73" fill="none" xmlns="http://www.w3.org/2000/svg">
<path d="M37.3686 68.3956L37.5504 72.6114H0.479492L34.2232 0L67.9998 72.7607H63.2623L34.2227 10.5002L8.15557 68.3755L37.3686 68.3956Z" fill="#F8DA15"/>
<path d="M60.3124 38.8701C60.3124 53.3069 48.6396 65.0097 34.2397 65.0097C19.8402 65.0097 8.16699 53.3069 8.16699 38.8701C8.16699 24.4335 19.8402 12.7305 34.2397 12.7305C48.6396 12.7303 60.3124 24.4334 60.3124 38.8701ZM34.2397 17.1571C22.2785 17.1571 12.5827 26.8781 12.5827 38.8701C12.5827 50.8618 22.2785 60.5831 34.2397 60.5831C46.2008 60.5831 55.897 50.8618 55.897 38.8701C55.897 26.8781 46.2008 17.1571 34.2397 17.1571Z" fill="#F8DA15"/>
<path d="M14.2706 55.468L13.7744 54.871L15.8501 50.5967L16.4002 51.4155" fill="#F8DA15"/>
<path d="M63.3471 72.6279H67.784L34.2163 0.319336L31.9297 5.25274L63.3471 72.6279Z" fill="#F8DA15"/>
<path d="M10.4951 51.3819L11.0327 50.2025L13.8162 44.2305L18.2082 45.7229L15.7148 51.2832L13.6695 55.8158L10.4951 51.3819Z" fill="#F8DA15"/>
</svg>
